<svg xmlns="http://www.w3.org/2000/svg" version="1.1" xmlns:xlink="http://www.w3.org/1999/xlink" xmlns:svgjs="http://svgjs.dev/svgjs" width="1000" height="222" viewBox="0 0 1000 222"><g transform="matrix(1,0,0,1,-0.6060606060606801,-0.29179234938187903)"><svg viewBox="0 0 396 88" data-background-color="#ffffff" preserveAspectRatio="xMidYMid meet" height="222" width="1000" xmlns="http://www.w3.org/2000/svg" xmlns:xlink="http://www.w3.org/1999/xlink"><g id="tight-bounds" transform="matrix(1,0,0,1,0.24000000000003752,0.11566543579101562)"><svg viewBox="0 0 395.5199999999999 87.76866806291444" height="87.76866806291444" width="395.5199999999999"><rect width="395.5199890136719" height="87.76866912841797" fill="url(#a6111451-fa35-421d-91a8-679c18093a49)" mask="url(&quot;#1aa30d20-df5e-49d6-997e-64a78a5bec80&quot;)" data-fill-palette-color="accent"></rect><g><svg viewBox="0 0 539.2879986601779 119.67179749372626" height="87.76866806291444" width="395.5199999999999"><g transform="matrix(1,0,0,1,0,34.31847939202442)"><svg viewBox="0 0 395.52 51.034838709677416" height="51.034838709677416" width="395.52"><g id="textblocktransform"><svg viewBox="0 0 395.52 51.034838709677416" height="51.034838709677416" width="395.52" id="textblock"><g><svg viewBox="0 0 395.52 51.034838709677416" height="51.034838709677416" width="395.52"><g transform="matrix(1,0,0,1,0,0)"><svg width="395.52" viewBox="2.5 -37.20000076293945 291.3800048828125 37.60000228881836" height="51.034838709677416" data-palette-color="#d6163d"><g class="undefined-text-0" data-fill-palette-color="primary" id="text-0"><path d="M34.6-19.25L34.6-3.7Q33.95-3 32.55-2.27 31.15-1.55 29.33-0.95 27.5-0.35 25.6 0.03 23.7 0.4 22 0.4L22 0.4Q17.5 0.4 13.9-0.93 10.3-2.25 7.75-4.63 5.2-7 3.85-10.25 2.5-13.5 2.5-17.35L2.5-17.35Q2.5-22.4 4.03-26.13 5.55-29.85 8.18-32.33 10.8-34.8 14.23-36 17.65-37.2 21.4-37.2L21.4-37.2Q24.95-37.2 27.9-36.43 30.85-35.65 32.9-34.5L32.9-34.5 30.55-27.75Q29.65-28.25 28.15-28.75 26.65-29.25 25.1-29.58 23.55-29.9 22.35-29.9L22.35-29.9Q19.35-29.9 17.05-29.15 14.75-28.4 13.18-26.9 11.6-25.4 10.8-23.18 10-20.95 10-18L10-18Q10-15.4 10.9-13.33 11.8-11.25 13.43-9.8 15.05-8.35 17.28-7.6 19.5-6.85 22.2-6.85L22.2-6.85Q23.75-6.85 25.05-7.08 26.35-7.3 27.25-7.8L27.25-7.8 27.25-12.25 20.9-12.25 20.9-19.25 34.6-19.25ZM42.85 0L42.85-36.8 67.95-36.8 67.95-29.8 50.1-29.8 50.1-21.95 65.9-21.95 65.9-14.95 50.1-14.95 50.1-7 68.65-7 68.65 0 42.85 0ZM73.9-18.35L73.9-18.35Q73.9-22.15 75.35-25.55 76.8-28.95 79.37-31.58 81.95-34.2 85.35-35.7 88.75-37.2 92.65-37.2L92.65-37.2Q96.5-37.2 99.9-35.7 103.3-34.2 105.92-31.58 108.55-28.95 110.02-25.55 111.5-22.15 111.5-18.35L111.5-18.35Q111.5-14.45 110.02-11.05 108.55-7.65 105.92-5.08 103.3-2.5 99.9-1.05 96.5 0.4 92.65 0.4L92.65 0.4Q88.75 0.4 85.35-1.05 81.95-2.5 79.37-5.08 76.8-7.65 75.35-11.05 73.9-14.45 73.9-18.35ZM81.4-18.35L81.4-18.35Q81.4-15.9 82.27-13.78 83.15-11.65 84.72-10.03 86.3-8.4 88.37-7.5 90.45-6.6 92.9-6.6L92.9-6.6Q95.25-6.6 97.27-7.5 99.3-8.4 100.8-10.03 102.3-11.65 103.15-13.78 104-15.9 104-18.35L104-18.35Q104-20.85 103.12-23 102.25-25.15 100.72-26.78 99.2-28.4 97.15-29.3 95.1-30.2 92.7-30.2L92.7-30.2Q90.3-30.2 88.25-29.3 86.2-28.4 84.65-26.78 83.1-25.15 82.25-23 81.4-20.85 81.4-18.35ZM118.74-36.8L129.54-36.8Q135.29-36.8 138.69-34.48 142.09-32.15 142.09-27.55L142.09-27.55Q142.09-24.15 140.42-21.88 138.74-19.6 135.87-18.48 132.99-17.35 129.29-17.35L129.29-17.35 128.14-21.25Q132.69-21.25 136.22-20 139.74-18.75 141.79-16.43 143.84-14.1 143.84-10.85L143.84-10.85Q143.84-7.85 142.77-5.78 141.69-3.7 139.87-2.43 138.04-1.15 135.74-0.58 133.44 0 130.99 0L130.99 0 118.74 0 118.74-36.8ZM125.99-21.75L130.39-21.75Q132.54-21.75 133.57-23.05 134.59-24.35 134.59-26L134.59-26Q134.59-27.9 133.32-28.85 132.04-29.8 129.89-29.8L129.89-29.8 125.99-29.8 125.99-21.75ZM125.99-6.75L130.64-6.75Q132.24-6.75 133.54-7.18 134.84-7.6 135.59-8.53 136.34-9.45 136.34-10.85L136.34-10.85Q136.34-12.45 135.44-13.28 134.54-14.1 133.12-14.43 131.69-14.75 130.14-14.75L130.14-14.75 125.99-14.75 125.99-6.75ZM148.84-18.35L148.84-18.35Q148.84-22.15 150.29-25.55 151.74-28.95 154.31-31.58 156.89-34.2 160.29-35.7 163.69-37.2 167.59-37.2L167.59-37.2Q171.44-37.2 174.84-35.7 178.24-34.2 180.87-31.58 183.49-28.95 184.97-25.55 186.44-22.15 186.44-18.35L186.44-18.35Q186.44-14.45 184.97-11.05 183.49-7.65 180.87-5.08 178.24-2.5 174.84-1.05 171.44 0.4 167.59 0.4L167.59 0.4Q163.69 0.4 160.29-1.05 156.89-2.5 154.31-5.08 151.74-7.65 150.29-11.05 148.84-14.45 148.84-18.35ZM156.34-18.35L156.34-18.35Q156.34-15.9 157.22-13.78 158.09-11.65 159.66-10.03 161.24-8.4 163.31-7.5 165.39-6.6 167.84-6.6L167.84-6.6Q170.19-6.6 172.22-7.5 174.24-8.4 175.74-10.03 177.24-11.65 178.09-13.78 178.94-15.9 178.94-18.35L178.94-18.35Q178.94-20.85 178.06-23 177.19-25.15 175.67-26.78 174.14-28.4 172.09-29.3 170.04-30.2 167.64-30.2L167.64-30.2Q165.24-30.2 163.19-29.3 161.14-28.4 159.59-26.78 158.04-25.15 157.19-23 156.34-20.85 156.34-18.35ZM191.44-18.35L191.44-18.35Q191.44-22.15 192.89-25.55 194.34-28.95 196.91-31.58 199.49-34.2 202.89-35.7 206.29-37.2 210.19-37.2L210.19-37.2Q214.04-37.2 217.44-35.7 220.84-34.2 223.46-31.58 226.09-28.95 227.56-25.55 229.04-22.15 229.04-18.35L229.04-18.35Q229.04-14.45 227.56-11.05 226.09-7.65 223.46-5.08 220.84-2.5 217.44-1.05 214.04 0.4 210.19 0.4L210.19 0.4Q206.29 0.4 202.89-1.05 199.49-2.5 196.91-5.08 194.34-7.65 192.89-11.05 191.44-14.45 191.44-18.35ZM198.94-18.35L198.94-18.35Q198.94-15.9 199.81-13.78 200.69-11.65 202.26-10.03 203.84-8.4 205.91-7.5 207.99-6.6 210.44-6.6L210.44-6.6Q212.79-6.6 214.81-7.5 216.84-8.4 218.34-10.03 219.84-11.65 220.69-13.78 221.54-15.9 221.54-18.35L221.54-18.35Q221.54-20.85 220.66-23 219.79-25.15 218.26-26.78 216.74-28.4 214.69-29.3 212.64-30.2 210.24-30.2L210.24-30.2Q207.84-30.2 205.79-29.3 203.74-28.4 202.19-26.78 200.64-25.15 199.79-23 198.94-20.85 198.94-18.35ZM243.63-36.8L243.63-23.7 243.44-21.85 244.53-23.25 256.53-36.8 265.94-36.8 250.74-20.3 265.99 0 256.78 0 245.44-15.7 243.63-13.9 243.63 0 236.28 0 236.28-36.8 243.63-36.8ZM293.88-33.45L291.13-27.9Q289.03-29.05 286.86-29.8 284.68-30.55 282.78-30.55L282.78-30.55Q280.43-30.55 279.08-29.6 277.73-28.65 277.73-26.75L277.73-26.75Q277.73-25.45 278.76-24.43 279.78-23.4 281.41-22.6 283.03-21.8 284.78-21.15L284.78-21.15Q286.38-20.55 287.96-19.73 289.53-18.9 290.78-17.68 292.03-16.45 292.78-14.63 293.53-12.8 293.53-10.15L293.53-10.15Q293.53-7.35 292.08-4.95 290.63-2.55 287.83-1.07 285.03 0.4 280.93 0.4L280.93 0.4Q278.83 0.4 276.66-0.03 274.48-0.45 272.38-1.33 270.28-2.2 268.33-3.55L268.33-3.55 271.53-9.2Q272.83-8.25 274.36-7.53 275.88-6.8 277.43-6.4 278.98-6 280.28-6L280.28-6Q281.58-6 282.91-6.38 284.23-6.75 285.11-7.65 285.98-8.55 285.98-10.15L285.98-10.15Q285.98-11.25 285.26-12.15 284.53-13.05 283.31-13.8 282.08-14.55 280.63-15.1L280.63-15.1Q278.93-15.75 277.13-16.6 275.33-17.45 273.76-18.68 272.18-19.9 271.21-21.73 270.23-23.55 270.23-26.2L270.23-26.2Q270.23-29.4 271.66-31.75 273.08-34.1 275.68-35.48 278.28-36.85 281.68-37L281.68-37Q286.13-37 288.91-35.95 291.68-34.9 293.88-33.45L293.88-33.45Z" fill="#d6163d" data-fill-palette-color="primary"></path></g></svg></g></svg></g></svg></g></svg></g><g transform="matrix(1,0,0,1,419.6162011664516,0)"><svg viewBox="0 0 119.67179749372626 119.67179749372626" height="119.67179749372626" width="119.67179749372626"><g><svg></svg></g><g id="icon-0"><svg viewBox="0 0 119.67179749372626 119.67179749372626" height="119.67179749372626" width="119.67179749372626"><g></g><g transform="matrix(1,0,0,1,36.30204015504655,29.42185275801301)"><svg viewBox="0 0 47.067717183633164 60.82809197770024" height="60.82809197770024" width="47.067717183633164"><g><svg xmlns="http://www.w3.org/2000/svg" xmlns:xlink="http://www.w3.org/1999/xlink" version="1.1" x="0" y="0" viewBox="12.982999801635742 1 75.68599700927734 97.81300354003906" enable-background="new 0 0 100 100" xml:space="preserve" height="60.82809197770024" width="47.067717183633164" class="icon-s-0" data-fill-palette-color="accent" id="s-0"></svg></g></svg></g></svg></g></svg></g></svg></g><defs><linearGradient x1="0.054" x2="0.941" y1="0.5" y2="0.5" id="a6111451-fa35-421d-91a8-679c18093a49"><stop stop-color="#0f3054" offset="0"></stop><stop stop-color="#3b8dcb" offset="0.498"></stop><stop stop-color="#0f3054" offset="1"></stop></linearGradient></defs><mask id="1aa30d20-df5e-49d6-997e-64a78a5bec80"><g id="SvgjsG1011"><svg viewBox="0 0 395.5199999999999 87.76866806291444" height="87.76866806291444" width="395.5199999999999"><g><svg viewBox="0 0 539.2879986601779 119.67179749372626" height="87.76866806291444" width="395.5199999999999"><g transform="matrix(1,0,0,1,0,34.31847939202442)"><svg viewBox="0 0 395.52 51.034838709677416" height="51.034838709677416" width="395.52"><g id="SvgjsG1010"><svg viewBox="0 0 395.52 51.034838709677416" height="51.034838709677416" width="395.52" id="SvgjsSvg1009"><g><svg viewBox="0 0 395.52 51.034838709677416" height="51.034838709677416" width="395.52"><g transform="matrix(1,0,0,1,0,0)"><svg width="395.52" viewBox="2.5 -37.20000076293945 291.3800048828125 37.60000228881836" height="51.034838709677416" data-palette-color="#d6163d"><g class="undefined-text-0" data-fill-palette-color="primary" id="SvgjsG1008"></g></svg></g></svg></g></svg></g></svg></g><g transform="matrix(1,0,0,1,419.6162011664516,0)"><svg viewBox="0 0 119.67179749372626 119.67179749372626" height="119.67179749372626" width="119.67179749372626"><g><svg></svg></g><g id="SvgjsG1007"><svg viewBox="0 0 119.67179749372626 119.67179749372626" height="119.67179749372626" width="119.67179749372626"><g><path d="M0 59.836c0-33.046 26.789-59.836 59.836-59.836 33.046 0 59.836 26.789 59.836 59.836 0 33.046-26.789 59.836-59.836 59.836-33.046 0-59.836-26.789-59.836-59.836zM59.836 115.069c30.505 0 55.234-24.729 55.233-55.233 0-30.505-24.729-55.234-55.233-55.234-30.505 0-55.234 24.729-55.234 55.234 0 30.505 24.729 55.234 55.234 55.233z" fill="white" stroke="transparent"></path></g><g transform="matrix(1,0,0,1,36.30204015504655,29.42185275801301)"><svg viewBox="0 0 47.067717183633164 60.82809197770024" height="60.82809197770024" width="47.067717183633164"><g><svg xmlns="http://www.w3.org/2000/svg" xmlns:xlink="http://www.w3.org/1999/xlink" version="1.1" x="0" y="0" viewBox="12.982999801635742 1 75.68599700927734 97.81300354003906" enable-background="new 0 0 100 100" xml:space="preserve" height="60.82809197770024" width="47.067717183633164" class="icon-s-0" data-fill-palette-color="accent" id="SvgjsSvg1006"><g fill="white"><polygon fill-rule="evenodd" clip-rule="evenodd" points="12.983,10.59 30.001,98.813 24.129,39.764 53.15,37.872 53.096,27.989    64.549,1 53.622,18.977  " fill="white"></polygon><polygon fill-rule="evenodd" clip-rule="evenodd" points="59.389,54.548 64.549,1.007 55.809,40.723 36.197,41.768 37.767,62.23    30.001,98.813 42.058,58.914  " fill="white"></polygon><polygon fill-rule="evenodd" clip-rule="evenodd" points="62.8,67.182 63.349,56.729 47.37,60.484 47.338,72.281 30.001,98.813    51.681,71.197  " fill="white"></polygon><polygon fill-rule="evenodd" clip-rule="evenodd" points="65.711,62.394 80.552,57.663 82.061,45.131 66.162,47.226  " fill="white"></polygon><polygon fill-rule="evenodd" clip-rule="evenodd" points="72.07,44.502 83.058,43.085 84.639,32.807 76.56,32.434 64.549,1    72.979,31.967  " fill="white"></polygon><polygon fill-rule="evenodd" clip-rule="evenodd" points="87.413,31.294 88.669,21.788 79.125,19.094 64.549,1 79.032,23.437    78.61,30.437  " fill="white"></polygon></g></svg></g></svg></g></svg></g></svg></g></svg></g><defs><mask></mask></defs></svg></g></mask></svg><rect width="395.5199999999999" height="87.76866806291444" fill="none" stroke="none" visibility="hidden"></rect></g></svg></g></svg>